<?xml version="1.0"?>
<svg xmlns="http://www.w3.org/2000/svg" viewBox="0 0 80 80" fill="#ffffff">
  <g xmlns="http://www.w3.org/2000/svg" transform="matrix(-1 0 0 -1 80 80)">
    <g xmlns="http://www.w3.org/2000/svg" transform="matrix(0 1 -1 0 80 -0)">
      <g>
        <path fill="#ffffff" d="M53.24,56.941c-4.537,3.719-8.992,5.604-13.24,5.604c-11.218,0-20.735-13.296-22.4-15.758   c1.229-1.822,6.75-9.582,14.079-13.482c0.354-0.188,0.489-0.629,0.301-0.983c-0.188-0.353-0.628-0.491-0.984-0.3   c-8.634,4.596-14.631,13.98-14.882,14.378c-0.151,0.237-0.151,0.54,0,0.776C16.547,47.863,26.896,64,40,64   c4.594,0,9.357-1.996,14.163-5.934c0.311-0.254,0.355-0.713,0.101-1.023C54.009,56.732,53.55,56.688,53.24,56.941z"/>
        <path fill="#ffffff" d="M40,58.666c-2.395,0-4.703-0.709-6.675-2.051c-0.334-0.226-0.785-0.139-1.011,0.192   c-0.227,0.333-0.141,0.784,0.192,1.011c2.214,1.506,4.805,2.303,7.493,2.303c7.353,0,13.333-5.98,13.333-13.333   c0-3.67-1.536-7.216-4.214-9.728c-0.293-0.274-0.753-0.262-1.027,0.033c-0.274,0.293-0.261,0.753,0.033,1.027   c2.42,2.271,3.754,5.35,3.754,8.667C51.879,53.338,46.55,58.666,40,58.666z"/>
        <path fill="#ffffff" d="M41.487,50.633c-0.474,0.184-0.974,0.276-1.487,0.276c-2.272,0-4.121-1.849-4.121-4.121   c0-0.401-0.326-0.728-0.728-0.728c-0.401,0-0.727,0.326-0.727,0.728c0,3.074,2.501,5.575,5.576,5.575   c0.693,0,1.37-0.126,2.013-0.375c0.375-0.145,0.561-0.566,0.415-0.939C42.283,50.674,41.863,50.488,41.487,50.633z"/>
        <path fill="#ffffff" d="M63.887,46.399c-0.323-0.511-7.914-12.36-18.311-15.862v-2.174c0-0.4-0.326-0.727-0.727-0.727   c-0.401,0-0.728,0.326-0.728,0.727v14.682c-1.021-1.123-2.487-1.833-4.121-1.833c-0.768,0-1.512,0.153-2.211,0.456   c-0.369,0.158-0.539,0.587-0.38,0.955c0.118,0.275,0.387,0.439,0.667,0.439c0.097,0,0.194-0.019,0.288-0.06   c0.518-0.224,1.067-0.337,1.636-0.337c2.272,0,4.121,1.85,4.121,4.122c0,0.726-0.19,1.438-0.551,2.06   c-0.201,0.348-0.083,0.793,0.265,0.994c0.115,0.066,0.241,0.098,0.364,0.098c0.251,0,0.495-0.13,0.63-0.363   c0.488-0.844,0.747-1.807,0.747-2.788V32.093c8.661,3.175,15.445,12.654,16.825,14.696c-0.709,1.052-2.848,4.084-5.919,7.189   c-0.282,0.285-0.28,0.746,0.006,1.027c0.143,0.141,0.327,0.211,0.512,0.211c0.188,0,0.375-0.072,0.517-0.216   c3.901-3.944,6.273-7.668,6.37-7.825C64.038,46.939,64.038,46.636,63.887,46.399z"/>
        <path fill="#ffffff" d="M32.242,25.213h2.182v9.47c-4.725,2.177-7.757,6.87-7.757,12.105c0,2.978,0.96,5.794,2.776,8.145   c0.144,0.186,0.358,0.283,0.576,0.283c0.155,0,0.312-0.05,0.443-0.151c0.318-0.246,0.377-0.703,0.132-1.02   c-1.618-2.096-2.474-4.604-2.474-7.257c0-4.437,2.442-8.437,6.303-10.485v7.232c0,0.401,0.326,0.727,0.727,0.727   c0.401,0,0.728-0.325,0.728-0.727V24.484c0-0.4-0.326-0.727-0.728-0.727h-1.153L40,17.756l6.002,6.002h-1.153   c-0.401,0-0.728,0.326-0.728,0.727c0,0.402,0.326,0.729,0.728,0.729h2.909c0.294,0,0.559-0.178,0.672-0.449   c0.112-0.272,0.051-0.584-0.158-0.793l-7.758-7.758c-0.283-0.283-0.744-0.283-1.028,0l-7.757,7.758   c-0.209,0.209-0.271,0.521-0.158,0.793C31.683,25.035,31.948,25.213,32.242,25.213z"/>
      </g>
    </g>
  </g>
</svg>
